<svg width="23" height="23" viewBox="0 0 23 23" fill="none" xmlns="http://www.w3.org/2000/svg">
<path d="M12.2175 2.87732V0.719329C12.2175 0.322586 11.8949 0 11.4981 0C11.1014 0 10.7788 0.322586 10.7788 0.719329V2.87732C10.7788 3.27406 11.1014 3.59665 11.4981 3.59665C11.8949 3.59665 12.2175 3.27406 12.2175 2.87732Z" fill="#4B53E6"/>
<path d="M4.38258 3.37053C4.10078 3.08873 3.64842 3.08873 3.36662 3.37053C3.08482 3.65233 3.08482 4.10469 3.36662 4.38649L4.89056 5.91043C5.17236 6.18852 5.62472 6.19223 5.90652 5.91043C6.18832 5.62863 6.18832 5.17627 5.90652 4.89447L4.38258 3.37053Z" fill="#4B53E6"/>
<path d="M0.719329 12.218H2.87732C3.27406 12.218 3.59665 11.8954 3.59665 11.4986C3.59665 11.1019 3.27406 10.7793 2.87732 10.7793H0.719329C0.322586 10.783 0 11.1056 0 11.5023C0 11.8991 0.322586 12.218 0.719329 12.218Z" fill="#4B53E6"/>
<path d="M3.36662 19.6331C3.50011 19.7666 3.6855 19.8444 3.8746 19.8444C4.0637 19.8444 4.2491 19.7703 4.38258 19.6331L5.90652 18.1091C6.04371 17.9757 6.11787 17.7903 6.11787 17.6012C6.11787 17.4121 6.04371 17.2267 5.90652 17.0932C5.77304 16.9597 5.58764 16.8818 5.39854 16.8818C5.20944 16.8818 5.02405 16.956 4.89056 17.0932L3.36662 18.6171C3.23314 18.7506 3.15527 18.936 3.15527 19.1251C3.15527 19.3142 3.23314 19.4959 3.36662 19.6331Z" fill="#4B53E6"/>
<path d="M12.2175 22.2806V20.1226C12.2175 19.7259 11.8949 19.4033 11.4981 19.4033C11.1014 19.4033 10.7788 19.7259 10.7788 20.1226V22.2806C10.7788 22.6774 11.1014 23 11.4981 23C11.8949 23 12.2175 22.6774 12.2175 22.2806Z" fill="#4B53E6"/>
<path d="M19.6297 18.6171L18.1057 17.0932C17.8239 16.8114 17.3716 16.8114 17.0898 17.0932C16.808 17.375 16.808 17.8273 17.0898 18.1091L18.6137 19.6331C18.8955 19.9149 19.3479 19.9149 19.6297 19.6331C19.9115 19.3513 19.9115 18.8952 19.6297 18.6171Z" fill="#4B53E6"/>
<path d="M23 11.5016C23 11.3125 22.9258 11.1271 22.7886 10.9936C22.6551 10.8601 22.4697 10.7822 22.2806 10.7822H20.1226C19.7259 10.7822 19.4033 11.1048 19.4033 11.5016C19.4033 11.8983 19.7259 12.2209 20.1226 12.2209H22.2806C22.4697 12.2209 22.6551 12.1467 22.7886 12.0095C22.9221 11.8723 23 11.6907 23 11.5016Z" fill="#4B53E6"/>
<path d="M19.6297 3.37053C19.4962 3.23705 19.3108 3.15918 19.1217 3.15918C18.9326 3.15918 18.7472 3.23334 18.6137 3.37053L17.0898 4.89447C16.808 5.17256 16.808 5.62863 17.0898 5.91043C17.3716 6.18852 17.8239 6.18852 18.1057 5.91043L19.6297 4.38649C19.7632 4.25301 19.841 4.06761 19.841 3.87851C19.841 3.6857 19.7632 3.50401 19.6297 3.37053Z" fill="#4B53E6"/>
<path d="M5.39111 11.5022C5.39111 13.1225 6.03258 14.6761 7.18202 15.8219C8.32776 16.9676 9.88136 17.6128 11.5017 17.6128C13.122 17.6128 14.6757 16.9713 15.8214 15.8219C16.9671 14.6761 17.6123 13.1225 17.6123 11.5022C17.6123 9.88185 16.9671 8.32825 15.8214 7.18251C14.6757 6.03677 13.122 5.3916 11.5017 5.3916C9.88136 5.3916 8.32776 6.03677 7.18202 7.18251C6.03629 8.32825 5.39111 9.88185 5.39111 11.5022ZM11.498 6.83026C13.389 6.83026 15.0909 7.96858 15.814 9.71499C16.537 11.4614 16.1366 13.4711 14.8017 14.8059C13.4669 16.1408 11.4572 16.5412 9.7108 15.8182C7.96438 15.0951 6.82606 13.3895 6.82606 11.5022C6.82977 8.92151 8.92102 6.83026 11.498 6.83026Z" fill="#4B53E6"/>
</svg>
